<svg id="visual" viewBox="0 0 900 600" width="900" height="600" xmlns="http://www.w3.org/2000/svg" xmlns:xlink="http://www.w3.org/1999/xlink" version="1.1"><rect x="0" y="0" width="900" height="600" fill="#131f00"></rect><defs><linearGradient id="grad1_0" x1="33.3%" y1="0%" x2="100%" y2="100%"><stop offset="20%" stop-color="#a4ff05" stop-opacity="1"></stop><stop offset="80%" stop-color="#a4ff05" stop-opacity="1"></stop></linearGradient></defs><defs><linearGradient id="grad1_1" x1="33.3%" y1="0%" x2="100%" y2="100%"><stop offset="20%" stop-color="#a4ff05" stop-opacity="1"></stop><stop offset="80%" stop-color="#78c115" stop-opacity="1"></stop></linearGradient></defs><defs><linearGradient id="grad1_2" x1="33.3%" y1="0%" x2="100%" y2="100%"><stop offset="20%" stop-color="#508716" stop-opacity="1"></stop><stop offset="80%" stop-color="#78c115" stop-opacity="1"></stop></linearGradient></defs><defs><linearGradient id="grad1_3" x1="33.3%" y1="0%" x2="100%" y2="100%"><stop offset="20%" stop-color="#508716" stop-opacity="1"></stop><stop offset="80%" stop-color="#2e5010" stop-opacity="1"></stop></linearGradient></defs><defs><linearGradient id="grad1_4" x1="33.3%" y1="0%" x2="100%" y2="100%"><stop offset="20%" stop-color="#131f00" stop-opacity="1"></stop><stop offset="80%" stop-color="#2e5010" stop-opacity="1"></stop></linearGradient></defs><defs><linearGradient id="grad2_0" x1="0%" y1="0%" x2="66.7%" y2="100%"><stop offset="20%" stop-color="#a4ff05" stop-opacity="1"></stop><stop offset="80%" stop-color="#a4ff05" stop-opacity="1"></stop></linearGradient></defs><defs><linearGradient id="grad2_1" x1="0%" y1="0%" x2="66.7%" y2="100%"><stop offset="20%" stop-color="#78c115" stop-opacity="1"></stop><stop offset="80%" stop-color="#a4ff05" stop-opacity="1"></stop></linearGradient></defs><defs><linearGradient id="grad2_2" x1="0%" y1="0%" x2="66.7%" y2="100%"><stop offset="20%" stop-color="#78c115" stop-opacity="1"></stop><stop offset="80%" stop-color="#508716" stop-opacity="1"></stop></linearGradient></defs><defs><linearGradient id="grad2_3" x1="0%" y1="0%" x2="66.7%" y2="100%"><stop offset="20%" stop-color="#2e5010" stop-opacity="1"></stop><stop offset="80%" stop-color="#508716" stop-opacity="1"></stop></linearGradient></defs><defs><linearGradient id="grad2_4" x1="0%" y1="0%" x2="66.7%" y2="100%"><stop offset="20%" stop-color="#2e5010" stop-opacity="1"></stop><stop offset="80%" stop-color="#131f00" stop-opacity="1"></stop></linearGradient></defs><g transform="translate(900, 0)"><path d="M0 297.5C-29.3 283.1 -58.6 268.7 -82.2 253C-105.8 237.3 -123.8 220.2 -152.2 209.5C-180.6 198.9 -219.4 194.5 -240.6 174.8C-261.9 155.1 -265.5 120.1 -272 88.4C-278.5 56.7 -288 28.3 -297.5 0L0 0Z" fill="#1f370b"></path><path d="M0 238C-23.4 226.5 -46.8 215 -65.8 202.4C-84.7 189.8 -99.1 176.2 -121.8 167.6C-144.5 159.1 -175.6 155.6 -192.5 139.9C-209.5 124.1 -212.4 96.1 -217.6 70.7C-222.8 45.3 -230.4 22.7 -238 0L0 0Z" fill="#3f6b14"></path><path d="M0 178.5C-17.6 169.8 -35.1 161.2 -49.3 151.8C-63.5 142.4 -74.3 132.1 -91.3 125.7C-108.4 119.3 -131.7 116.7 -144.4 104.9C-157.1 93.1 -159.3 72 -163.2 53C-167.1 34 -172.8 17 -178.5 0L0 0Z" fill="#63a317"></path><path d="M0 119C-11.7 113.2 -23.4 107.5 -32.9 101.2C-42.3 94.9 -49.5 88.1 -60.9 83.8C-72.3 79.5 -87.8 77.8 -96.3 69.9C-104.7 62.1 -106.2 48 -108.8 35.4C-111.4 22.7 -115.2 11.3 -119 0L0 0Z" fill="#8de011"></path><path d="M0 59.5C-5.9 56.6 -11.7 53.7 -16.4 50.6C-21.2 47.5 -24.8 44 -30.4 41.9C-36.1 39.8 -43.9 38.9 -48.1 35C-52.4 31 -53.1 24 -54.4 17.7C-55.7 11.3 -57.6 5.7 -59.5 0L0 0Z" fill="#a4ff05"></path></g><g transform="translate(0, 600)"><path d="M0 -297.5C26.5 -280 53 -262.6 83.1 -255.8C113.3 -249.1 147.1 -253 174.8 -240.6C202.6 -228.3 224.3 -199.6 233.8 -169.9C243.3 -140.2 240.6 -109.4 249.2 -81C257.8 -52.5 277.6 -26.2 297.5 0L0 0Z" fill="#1f370b"></path><path d="M0 -238C21.2 -224 42.4 -210.1 66.5 -204.7C90.6 -199.3 117.7 -202.4 139.9 -192.5C162.1 -182.6 179.4 -159.7 187 -135.9C194.6 -112.1 192.5 -87.6 199.3 -64.8C206.2 -42 222.1 -21 238 0L0 0Z" fill="#3f6b14"></path><path d="M0 -178.5C15.9 -168 31.8 -157.5 49.9 -153.5C68 -149.5 88.3 -151.8 104.9 -144.4C121.6 -137 134.6 -119.7 140.3 -101.9C146 -84.1 144.4 -65.7 149.5 -48.6C154.7 -31.5 166.6 -15.7 178.5 0L0 0Z" fill="#63a317"></path><path d="M0 -119C10.6 -112 21.2 -105 33.3 -102.3C45.3 -99.6 58.8 -101.2 69.9 -96.3C81 -91.3 89.7 -79.8 93.5 -67.9C97.3 -56.1 96.2 -43.8 99.7 -32.4C103.1 -21 111 -10.5 119 0L0 0Z" fill="#8de011"></path><path d="M0 -59.5C5.3 -56 10.6 -52.5 16.6 -51.2C22.7 -49.8 29.4 -50.6 35 -48.1C40.5 -45.7 44.9 -39.9 46.8 -34C48.7 -28 48.1 -21.9 49.8 -16.2C51.6 -10.5 55.5 -5.2 59.5 0L0 0Z" fill="#a4ff05"></path></g></svg>