<svg id="visual" viewBox="0 0 900 600" width="900" height="600" xmlns="http://www.w3.org/2000/svg" xmlns:xlink="http://www.w3.org/1999/xlink" version="1.1"><rect x="0" y="0" width="900" height="600" fill="#111a00"></rect><path d="M0 248L180 284L360 204L540 234L720 206L900 260L900 601L720 601L540 601L360 601L180 601L0 601Z" fill="#a6ff03"></path><path d="M0 279L180 275L360 268L540 262L720 339L900 314L900 601L720 601L540 601L360 601L180 601L0 601Z" fill="#8bd303"></path><path d="M0 322L180 317L360 372L540 389L720 343L900 311L900 601L720 601L540 601L360 601L180 601L0 601Z" fill="#70a903"></path><path d="M0 394L180 370L360 415L540 453L720 440L900 444L900 601L720 601L540 601L360 601L180 601L0 601Z" fill="#568103"></path><path d="M0 487L180 476L360 466L540 447L720 461L900 484L900 601L720 601L540 601L360 601L180 601L0 601Z" fill="#3d5b03"></path><path d="M0 537L180 544L360 552L540 539L720 531L900 528L900 601L720 601L540 601L360 601L180 601L0 601Z" fill="#253800"></path></svg>