<svg id="visual" viewBox="0 0 900 600" width="900" height="600" xmlns="http://www.w3.org/2000/svg" xmlns:xlink="http://www.w3.org/1999/xlink" version="1.1"><rect x="0" y="0" width="900" height="600" fill="#111a00"></rect><path d="M500 0L483 0L483 120L584 120L584 240L527 240L527 360L589 360L589 480L582 480L582 600L0 600L0 480L0 480L0 360L0 360L0 240L0 240L0 120L0 120L0 0L0 0Z" fill="#a6ff03"></path><path d="M399 0L427 0L427 120L499 120L499 240L472 240L472 360L524 360L524 480L465 480L465 600L0 600L0 480L0 480L0 360L0 360L0 240L0 240L0 120L0 120L0 0L0 0Z" fill="#8fda03"></path><path d="M351 0L411 0L411 120L375 120L375 240L326 240L326 360L401 360L401 480L453 480L453 600L0 600L0 480L0 480L0 360L0 360L0 240L0 240L0 120L0 120L0 0L0 0Z" fill="#79b703"></path><path d="M299 0L268 0L268 120L365 120L365 240L331 240L331 360L327 360L327 480L262 480L262 600L0 600L0 480L0 480L0 360L0 360L0 240L0 240L0 120L0 120L0 0L0 0Z" fill="#639503"></path><path d="M206 0L201 0L201 120L259 120L259 240L236 240L236 360L277 360L277 480L236 480L236 600L0 600L0 480L0 480L0 360L0 360L0 240L0 240L0 120L0 120L0 0L0 0Z" fill="#4d7403"></path><path d="M140 0L144 0L144 120L139 120L139 240L153 240L153 360L141 360L141 480L217 480L217 600L0 600L0 480L0 480L0 360L0 360L0 240L0 240L0 120L0 120L0 0L0 0Z" fill="#385503"></path><path d="M125 0L129 0L129 120L122 120L122 240L118 240L118 360L133 360L133 480L77 480L77 600L0 600L0 480L0 480L0 360L0 360L0 240L0 240L0 120L0 120L0 0L0 0Z" fill="#253800"></path></svg>