<svg id="visual" viewBox="0 0 900 600" width="900" height="600" xmlns="http://www.w3.org/2000/svg" xmlns:xlink="http://www.w3.org/1999/xlink" version="1.1"><g stroke-width="1" stroke-linejoin="bevel"><path d="M500 334L423 418L528 408Z" fill="#1c2c02" stroke="#1c2c02"></path><path d="M480 508L583 417L528 408Z" fill="#203201" stroke="#203201"></path><path d="M528 408L583 417L500 334Z" fill="#203201" stroke="#203201"></path><path d="M423 418L480 508L528 408Z" fill="#131d01" stroke="#131d01"></path><path d="M500 334L361 310L423 418Z" fill="#203201" stroke="#203201"></path><path d="M361 310L340 418L423 418Z" fill="#152001" stroke="#152001"></path><path d="M423 418L384 515L480 508Z" fill="#1e2f02" stroke="#1e2f02"></path><path d="M340 418L384 515L423 418Z" fill="#203201" stroke="#203201"></path><path d="M583 417L623 280L500 334Z" fill="#1c2c02" stroke="#1c2c02"></path><path d="M500 334L513 190L361 310Z" fill="#1c2c02" stroke="#1c2c02"></path><path d="M578 214L513 190L500 334Z" fill="#253800" stroke="#253800"></path><path d="M623 280L578 214L500 334Z" fill="#172302" stroke="#172302"></path><path d="M384 515L437 600L480 508Z" fill="#172302" stroke="#172302"></path><path d="M480 508L628 539L583 417Z" fill="#253800" stroke="#253800"></path><path d="M518 600L628 539L480 508Z" fill="#233501" stroke="#233501"></path><path d="M727 363L697 278L623 280Z" fill="#182602" stroke="#182602"></path><path d="M513 190L362 199L361 310Z" fill="#1c2c02" stroke="#1c2c02"></path><path d="M231 318L222 400L340 418Z" fill="#182602" stroke="#182602"></path><path d="M437 600L518 600L480 508Z" fill="#111a00" stroke="#111a00"></path><path d="M628 539L679 472L583 417Z" fill="#253800" stroke="#253800"></path><path d="M362 199L286 264L361 310Z" fill="#233501" stroke="#233501"></path><path d="M222 400L261 462L340 418Z" fill="#1a2902" stroke="#1a2902"></path><path d="M340 418L261 462L384 515Z" fill="#182602" stroke="#182602"></path><path d="M384 515L289 600L437 600Z" fill="#111a00" stroke="#111a00"></path><path d="M518 600L589 600L628 539Z" fill="#152001" stroke="#152001"></path><path d="M628 539L715 600L679 472Z" fill="#1c2c02" stroke="#1c2c02"></path><path d="M727 363L623 280L583 417Z" fill="#111a00" stroke="#111a00"></path><path d="M623 280L689 195L578 214Z" fill="#1e2f02" stroke="#1e2f02"></path><path d="M222 400L234 460L261 462Z" fill="#1a2902" stroke="#1a2902"></path><path d="M261 462L289 600L384 515Z" fill="#152001" stroke="#152001"></path><path d="M231 318L340 418L361 310Z" fill="#172302" stroke="#172302"></path><path d="M286 264L231 318L361 310Z" fill="#1e2f02" stroke="#1e2f02"></path><path d="M679 472L727 363L583 417Z" fill="#131d01" stroke="#131d01"></path><path d="M201 600L289 600L261 462Z" fill="#1e2f02" stroke="#1e2f02"></path><path d="M799 233L689 195L697 278Z" fill="#253800" stroke="#253800"></path><path d="M697 278L689 195L623 280Z" fill="#152001" stroke="#152001"></path><path d="M578 214L542 101L513 190Z" fill="#182602" stroke="#182602"></path><path d="M583 87L542 101L578 214Z" fill="#111a00" stroke="#111a00"></path><path d="M513 190L370 105L362 199Z" fill="#253800" stroke="#253800"></path><path d="M370 105L281 163L362 199Z" fill="#111a00" stroke="#111a00"></path><path d="M362 199L281 163L286 264Z" fill="#182602" stroke="#182602"></path><path d="M286 264L203 200L231 318Z" fill="#182602" stroke="#182602"></path><path d="M542 101L370 105L513 190Z" fill="#172302" stroke="#172302"></path><path d="M689 195L583 87L578 214Z" fill="#111a00" stroke="#111a00"></path><path d="M413 0L328 69L370 105Z" fill="#203201" stroke="#203201"></path><path d="M589 600L715 600L628 539Z" fill="#1a2902" stroke="#1a2902"></path><path d="M833 505L830 368L727 363Z" fill="#131d01" stroke="#131d01"></path><path d="M214 120L203 200L281 163Z" fill="#131d01" stroke="#131d01"></path><path d="M281 163L203 200L286 264Z" fill="#1a2902" stroke="#1a2902"></path><path d="M231 318L129 381L222 400Z" fill="#111a00" stroke="#111a00"></path><path d="M66 302L129 381L231 318Z" fill="#131d01" stroke="#131d01"></path><path d="M222 400L129 381L234 460Z" fill="#131d01" stroke="#131d01"></path><path d="M234 460L201 600L261 462Z" fill="#1a2902" stroke="#1a2902"></path><path d="M111 600L201 600L234 460Z" fill="#131d01" stroke="#131d01"></path><path d="M470 0L370 105L542 101Z" fill="#131d01" stroke="#131d01"></path><path d="M370 105L328 69L281 163Z" fill="#1c2c02" stroke="#1c2c02"></path><path d="M727 363L813 287L697 278Z" fill="#1a2902" stroke="#1a2902"></path><path d="M685 0L567 0L583 87Z" fill="#1c2c02" stroke="#1c2c02"></path><path d="M830 368L813 287L727 363Z" fill="#131d01" stroke="#131d01"></path><path d="M833 505L727 363L679 472Z" fill="#1c2c02" stroke="#1c2c02"></path><path d="M813 287L799 233L697 278Z" fill="#111a00" stroke="#111a00"></path><path d="M328 69L214 120L281 163Z" fill="#253800" stroke="#253800"></path><path d="M203 200L89 242L231 318Z" fill="#1c2c02" stroke="#1c2c02"></path><path d="M715 600L782 600L679 472Z" fill="#1a2902" stroke="#1a2902"></path><path d="M782 600L833 505L679 472Z" fill="#131d01" stroke="#131d01"></path><path d="M567 0L542 101L583 87Z" fill="#233501" stroke="#233501"></path><path d="M567 0L470 0L542 101Z" fill="#203201" stroke="#203201"></path><path d="M328 69L210 0L214 120Z" fill="#233501" stroke="#233501"></path><path d="M470 0L413 0L370 105Z" fill="#253800" stroke="#253800"></path><path d="M728 71L583 87L689 195Z" fill="#172302" stroke="#172302"></path><path d="M799 233L728 71L689 195Z" fill="#152001" stroke="#152001"></path><path d="M88 60L89 242L203 200Z" fill="#1e2f02" stroke="#1e2f02"></path><path d="M89 242L66 302L231 318Z" fill="#203201" stroke="#203201"></path><path d="M57 483L111 600L234 460Z" fill="#253800" stroke="#253800"></path><path d="M57 483L234 460L129 381Z" fill="#111a00" stroke="#111a00"></path><path d="M413 0L307 0L328 69Z" fill="#203201" stroke="#203201"></path><path d="M214 120L88 60L203 200Z" fill="#1e2f02" stroke="#1e2f02"></path><path d="M0 439L57 483L129 381Z" fill="#131d01" stroke="#131d01"></path><path d="M833 505L900 407L830 368Z" fill="#182602" stroke="#182602"></path><path d="M830 368L900 257L813 287Z" fill="#1e2f02" stroke="#1e2f02"></path><path d="M813 287L900 257L799 233Z" fill="#111a00" stroke="#111a00"></path><path d="M799 233L827 85L728 71Z" fill="#233501" stroke="#233501"></path><path d="M900 498L900 407L833 505Z" fill="#1a2902" stroke="#1a2902"></path><path d="M728 71L685 0L583 87Z" fill="#172302" stroke="#172302"></path><path d="M900 600L900 498L833 505Z" fill="#172302" stroke="#172302"></path><path d="M900 407L900 257L830 368Z" fill="#152001" stroke="#152001"></path><path d="M728 71L757 0L685 0Z" fill="#203201" stroke="#203201"></path><path d="M900 257L900 234L799 233Z" fill="#233501" stroke="#233501"></path><path d="M900 114L827 85L799 233Z" fill="#233501" stroke="#233501"></path><path d="M307 0L210 0L328 69Z" fill="#152001" stroke="#152001"></path><path d="M66 302L0 439L129 381Z" fill="#131d01" stroke="#131d01"></path><path d="M57 483L0 524L111 600Z" fill="#111a00" stroke="#111a00"></path><path d="M0 272L0 439L66 302Z" fill="#111a00" stroke="#111a00"></path><path d="M782 600L900 600L833 505Z" fill="#253800" stroke="#253800"></path><path d="M827 85L757 0L728 71Z" fill="#233501" stroke="#233501"></path><path d="M0 174L0 272L89 242Z" fill="#1c2c02" stroke="#1c2c02"></path><path d="M89 242L0 272L66 302Z" fill="#233501" stroke="#233501"></path><path d="M0 439L0 524L57 483Z" fill="#1a2902" stroke="#1a2902"></path><path d="M210 0L88 60L214 120Z" fill="#111a00" stroke="#111a00"></path><path d="M900 234L900 114L799 233Z" fill="#203201" stroke="#203201"></path><path d="M827 85L900 0L757 0Z" fill="#253800" stroke="#253800"></path><path d="M88 60L0 174L89 242Z" fill="#111a00" stroke="#111a00"></path><path d="M0 524L0 600L111 600Z" fill="#1a2902" stroke="#1a2902"></path><path d="M88 60L0 118L0 174Z" fill="#203201" stroke="#203201"></path><path d="M210 0L82 0L88 60Z" fill="#111a00" stroke="#111a00"></path><path d="M88 60L0 0L0 118Z" fill="#152001" stroke="#152001"></path><path d="M900 114L900 0L827 85Z" fill="#131d01" stroke="#131d01"></path><path d="M82 0L0 0L88 60Z" fill="#152001" stroke="#152001"></path></g></svg>